<svg id="svg" xmlns="http://www.w3.org/2000/svg" viewBox="26.400001525878906 35.939998626708984 498.4691467285156 369.20001220703125" height="369.20001220703125"><rect x="37.2" y="45.94" fill="none" stroke="#59a4f9" stroke-width="2" width="196.39999999999998" height="269.2" d="M 37.2 45.94 h 196.39999999999998 v 269.2 h -196.39999999999998 Z"></rect><rect x="40.4" y="269.94" fill="none" stroke="#59a4f9" stroke-width="2" d="undefined"></rect><line x1="36.4" y1="271.54" x2="231.2" y2="271.94" fill="none" stroke="#59a4f9" stroke-width="2" d="M 36.4 271.54 L 231.2 271.94"></line><line x1="42" y1="225.14" x2="232" y2="229.54" fill="none" stroke="#59a4f9" stroke-width="2" d="M 42 225.14 L 232 229.54"></line><line x1="41.2" y1="182.74" x2="230.4" y2="181.54" fill="none" stroke="#59a4f9" stroke-width="2" d="M 41.2 182.74 L 230.4 181.54"></line><line x1="37.2" y1="137.94" x2="226.4" y2="135.94" fill="none" stroke="#59a4f9" stroke-width="2" d="M 37.2 137.94 L 226.4 135.94"></line><line x1="40.4" y1="94.74" x2="236" y2="97.54" fill="none" stroke="#59a4f9" stroke-width="2" d="M 40.4 94.74 L 236 97.54"></line><path d="M 85.2,345.14" fill="none" stroke="#59a4f9" stroke-width="2"></path><rect x="110.8" y="252.34" fill="none" stroke="#f14c4c" stroke-width="2" d="undefined"></rect><rect x="334.8" y="188.34" fill="none" stroke="#f14c4c" stroke-width="2" d="undefined"></rect><rect x="284.4" y="69.94" fill="none" stroke="#f14c4c" stroke-width="2" width="202.8" height="243.60000000000002" d="M 284.4 69.94 h 202.8 v 243.60000000000002 h -202.8 Z"></rect><rect x="90.8" y="296.34" fill="none" stroke="#f14c4c" stroke-width="2" d="undefined"></rect><path d="M 84.4,342.74 L 84.8,343.94 L 86.4,346.34 L 95.2,355.14 L 104,363.14 L 105.6,364.74 L 106.4,366.34 L 107.2,367.14 L 108,368.74 L 108,369.54 L 108,371.94 L 106.4,375.94 L 99.2,382.34 L 92.8,386.34 L 87.2,387.14 L 84.8,387.14 L 78.4,383.94 L 75.2,379.94 L 74.4,376.74 L 73.6,373.54 L 73.6,371.14 L 73.6,368.74 L 75.2,364.74 L 76,363.94 L 78.4,363.14 L 80,362.34 L 80.8,362.34 L 82.4,362.34 L 84,363.14 L 86.4,364.74 L 89.6,367.94 L 92.8,370.34 L 94.4,372.74 L 95.2,374.34 L 96.8,375.94 L 98.4,378.34 L 100,381.54 L 100.8,383.94" fill="none" stroke="#f14c4c" stroke-width="2"></path><path d="M 121.2,345.94 L 120.8,347.14 L 120.8,355.14 L 120,363.94 L 119.2,371.14 L 119.2,374.34 L 119.2,375.94 L 119.2,376.74 L 119.2,378.34 L 119.2,379.14 L 119.2,380.74 L 120,382.34 L 120.8,383.94 L 121.6,384.74 L 121.6,386.34 L 122.4,387.14 L 123.2,387.94 L 123.2,388.74 L 124,389.54 L 124.8,389.54 L 125.6,389.54 L 126.4,388.74 L 126.4,387.94 L 127.2,387.94 L 128,387.14 L 129.6,385.54 L 130.4,385.54 L 130.4,384.74 L 131.2,384.74 L 131.2,383.94 L 132,383.14 L 132.8,383.14" fill="none" stroke="#f14c4c" stroke-width="2"></path><path d="M 117.2,359.54 L 117.6,359.14 L 124.8,359.14 L 129.6,359.14 L 132,359.14 L 133.6,359.14 L 135.2,359.14 L 136,359.14 L 136,359.94" fill="none" stroke="#f14c4c" stroke-width="2"></path><path d="M 147.6,362.74 L 146.4,362.34 L 145.6,362.34 L 144.8,362.34 L 144.8,363.14 L 144.8,363.94 L 144,363.94 L 144,364.74 L 143.2,366.34 L 143.2,367.14 L 143.2,367.94 L 143.2,369.54 L 143.2,370.34 L 143.2,371.14 L 143.2,371.94 L 143.2,372.74 L 143.2,374.34 L 144,375.94 L 144,376.74 L 145.6,377.54 L 145.6,378.34 L 146.4,379.14 L 147.2,379.14 L 148.8,379.14 L 149.6,379.14 L 151.2,379.14 L 152.8,377.54 L 153.6,376.74 L 154.4,375.14 L 155.2,374.34 L 155.2,373.54 L 156,372.74 L 156.8,371.94 L 156.8,371.14 L 156.8,370.34 L 156.8,369.54 L 156.8,368.74 L 156.8,367.94 L 156.8,367.14 L 156,367.14 L 156,366.34 L 155.2,365.54 L 154.4,364.74 L 153.6,364.74 L 152.8,364.74 L 152,364.74 L 151.2,364.74 L 149.6,364.74 L 149.6,363.94 L 148.8,363.94 L 148,363.94 L 148,363.14 L 148,362.34 L 148.8,362.34 L 150.4,362.34 L 152,362.34 L 155.2,363.14 L 156.8,364.74 L 158.4,365.54 L 160,367.14 L 160.8,368.74 L 161.6,371.14 L 162.4,371.94 L 162.4,373.54 L 163.2,374.34 L 164,375.94 L 164,376.74 L 164.8,378.34 L 164.8,379.14 L 164.8,380.74 L 164.8,381.54 L 164.8,383.14 L 164.8,383.94 L 164.8,384.74 L 164.8,386.34 L 164.8,387.94 L 164.8,388.74 L 164.8,389.54 L 164.8,390.34" fill="none" stroke="#f14c4c" stroke-width="2"></path><path d="M 185.2,361.94 L 184,361.54 L 181.6,362.34 L 179.2,363.14 L 176.8,364.74 L 173.6,366.34 L 172.8,367.94 L 172,370.34 L 170.4,372.74 L 170.4,375.94 L 170.4,380.74 L 170.4,383.94 L 172,386.34 L 173.6,390.34 L 176,391.94 L 180,393.54 L 184,395.14 L 190.4,394.34 L 196.8,391.14 L 208,383.14 L 216.8,371.94 L 224.8,359.94 L 228.8,347.94 L 229.6,343.14 L 229.6,340.74 L 229.6,339.94 L 229.6,339.14 L 229.6,338.34 L 229.6,336.74 L 229.6,335.94 L 228.8,335.94 L 228,335.14 L 228,334.34 L 227.2,334.34 L 227.2,335.14 L 227.2,337.54 L 227.2,342.34 L 228.8,352.74 L 230.4,360.74 L 230.4,365.54 L 230.4,368.74 L 230.4,369.54 L 230.4,371.14 L 230.4,371.94 L 230.4,372.74 L 230.4,373.54 L 230.4,374.34 L 230.4,373.54 L 230.4,369.54 L 230.4,359.14 L 232,353.54 L 232.8,349.54 L 233.6,347.14 L 234.4,346.34 L 235.2,346.34 L 236,346.34 L 236.8,346.34 L 237.6,348.74 L 238.4,349.54 L 238.4,351.14 L 238.4,352.74 L 238.4,353.54 L 238.4,354.34 L 238.4,355.14 L 238.4,355.94 L 238.4,356.74 L 238.4,357.54 L 238.4,358.34 L 239.2,358.34 L 239.2,359.14 L 239.2,359.94 L 239.2,360.74 L 240,361.54 L 240,362.34 L 240.8,363.14 L 241.6,364.74 L 242.4,365.54 L 244,367.94 L 244.8,369.54 L 246.4,371.94" fill="none" stroke="#f14c4c" stroke-width="2"></path><path d="M 338.8,335.54 L 338.4,339.14 L 340,353.54 L 341.6,362.34 L 342.4,366.34 L 342.4,367.14 L 342.4,367.94 L 342.4,368.74 L 342.4,369.54 L 343.2,368.74 L 344,366.34 L 345.6,362.34 L 347.2,359.14 L 347.2,358.34 L 348,357.54 L 348,356.74 L 348.8,356.74 L 349.6,356.74 L 350.4,356.74 L 352.8,358.34 L 353.6,359.94 L 356,361.54 L 359.2,365.54 L 360.8,367.94 L 361.6,369.54 L 362.4,370.34 L 363.2,371.94 L 365.6,373.54 L 366.4,373.54 L 369.6,373.54 L 372.8,371.14 L 378.4,363.14 L 380.8,353.54 L 380.8,351.14 L 380.8,348.74 L 380.8,347.94 L 380,347.94 L 380,346.34 L 378.4,346.34 L 376.8,346.34 L 376,346.34 L 376,347.14 L 376,348.74 L 376,351.14 L 377.6,354.34 L 381.6,357.54 L 383.2,359.94 L 385.6,360.74 L 388.8,362.34 L 390.4,362.34 L 394.4,362.34 L 396.8,361.54 L 400,358.34 L 404,350.34 L 404.8,347.94 L 406.4,344.74 L 407.2,343.94 L 408,343.94 L 408.8,342.34 L 410.4,342.34 L 411.2,342.34 L 412,343.14 L 412.8,343.14 L 414.4,343.94 L 415.2,344.74 L 416,345.54 L 416.8,346.34 L 416.8,347.14 L 417.6,347.94 L 417.6,348.74 L 416.8,348.74 L 415.2,348.74 L 414.4,348.74 L 413.6,348.74 L 412.8,348.74 L 412,348.74 L 412,349.54 L 412,350.34 L 412,352.74 L 412,354.34 L 412.8,355.14 L 413.6,355.94 L 414.4,356.74 L 415.2,357.54 L 416.8,357.54 L 418.4,355.94 L 420.8,352.74 L 420.8,351.14 L 420.8,350.34 L 420.8,349.54 L 420.8,347.94 L 420.8,347.14 L 420.8,346.34 L 421.6,347.14 L 423.2,347.94 L 424,349.54 L 424.8,350.34 L 424.8,351.14 L 426.4,351.94 L 427.2,352.74 L 428,352.74 L 428.8,352.74 L 430.4,352.74 L 432.8,348.74 L 434.4,343.94 L 436,331.94 L 436,325.54 L 436,320.74 L 435.2,317.54 L 434.4,316.74 L 434.4,315.94 L 434.4,315.14 L 434.4,315.94 L 434.4,319.14 L 435.2,324.74 L 437.6,335.14 L 441.6,355.14 L 442.4,361.54 L 444.8,367.94 L 445.6,371.14 L 445.6,372.74 L 446.4,375.94 L 446.4,376.74 L 447.2,377.54 L 447.2,379.14 L 447.2,379.94 L 446.4,378.34 L 444.8,373.54 L 444.8,370.34 L 444.8,365.54 L 444.8,362.34 L 445.6,361.54 L 447.2,358.34 L 448.8,356.74 L 452,355.14 L 453.6,355.14 L 455.2,355.14 L 456.8,355.14 L 458.4,355.14 L 459.2,355.14 L 462.4,358.34 L 464,360.74 L 466.4,363.94 L 466.4,365.54 L 468,366.34 L 468.8,367.14 L 471.2,367.14 L 474.4,367.14 L 477.6,362.34" fill="none" stroke="#f14c4c" stroke-width="2"></path><path d="M 78,289.14 L 76,288.74 L 72,288.74 L 69.6,288.74 L 66.4,288.74 L 65.6,288.74 L 64,288.74 L 62.4,289.54 L 60.8,290.34 L 60,291.14 L 59.2,291.94 L 59.2,293.54 L 59.2,296.74 L 59.2,297.54 L 59.2,299.94 L 59.2,301.54 L 60,302.34 L 60.8,302.34 L 62.4,303.14 L 64.8,303.14 L 65.6,303.14 L 67.2,303.14 L 68,302.34 L 69.6,301.54 L 70.4,301.54 L 71.2,300.74 L 72,300.74 L 72,299.94 L 72.8,299.94 L 72.8,299.14 L 73.6,299.14 L 73.6,298.34 L 73.6,297.54 L 73.6,296.74 L 73.6,295.94 L 73.6,295.14 L 73.6,294.34 L 73.6,293.54 L 73.6,292.74 L 73.6,291.94 L 73.6,292.74 L 73.6,293.54 L 74.4,295.14 L 74.4,296.74 L 78.4,303.94 L 80.8,307.94 L 81.6,310.34 L 82.4,311.94 L 82.4,312.74 L 83.2,313.54 L 84,314.34 L 84.8,314.34 L 84.8,315.14 L 84.8,315.94" fill="none" stroke="#f14c4c" stroke-width="2"></path><path d="M 90.8,295.54 L 92,295.14 L 94.4,295.14 L 96.8,295.94 L 100,296.74 L 101.6,296.74 L 103.2,296.74 L 104.8,296.74 L 105.6,296.74 L 107.2,296.74 L 108,296.74 L 108.8,296.74 L 109.6,296.74 L 110.4,296.74" fill="none" stroke="#f14c4c" stroke-width="2"></path><path d="M 89.2,285.14 L 90.4,284.74 L 94.4,284.74 L 97.6,285.54 L 100,286.34 L 100.8,286.34 L 102.4,287.14 L 103.2,287.14 L 104.8,287.94 L 105.6,287.94 L 106.4,287.94 L 107.2,287.94 L 108,287.94 L 108.8,287.94 L 109.6,287.94 L 110.4,287.94 L 111.2,287.94 L 111.2,288.74" fill="none" stroke="#f14c4c" stroke-width="2"></path><path d="M 131.6,291.54 L 131.2,291.94 L 131.2,294.34 L 131.2,295.14 L 131.2,295.94 L 131.2,296.74 L 131.2,297.54 L 132,299.14 L 132,300.74 L 132.8,301.54 L 132.8,303.14 L 132.8,303.94 L 132.8,305.54 L 132.8,306.34 L 132.8,307.14 L 132.8,307.94 L 134.4,307.94" fill="none" stroke="#f14c4c" stroke-width="2"></path><path d="M 156.4,289.94 L 156,290.34 L 155.2,291.94 L 155.2,295.14 L 153.6,302.34 L 153.6,307.14 L 154.4,311.14 L 155.2,314.34 L 155.2,315.94 L 155.2,316.74 L 156,316.74 L 156.8,316.74 L 160,316.74 L 163.2,316.74 L 167.2,315.14 L 168.8,314.34 L 170.4,312.74 L 171.2,311.94 L 172.8,311.14 L 173.6,310.34 L 173.6,309.54 L 174.4,309.54 L 174.4,308.74 L 174.4,307.94 L 174.4,307.14 L 174.4,306.34 L 173.6,304.74 L 172.8,304.74 L 172.8,303.94 L 172,303.14 L 172,302.34 L 172,301.54 L 171.2,301.54 L 171.2,300.74 L 169.6,299.94 L 168.8,299.14 L 167.2,298.34 L 166.4,298.34 L 165.6,297.54 L 164,297.54 L 162.4,296.74 L 161.6,295.94 L 160,295.94 L 159.2,295.14 L 158.4,295.14 L 157.6,295.14 L 156.8,295.14 L 156,294.34 L 155.2,294.34 L 154.4,294.34 L 154.4,293.54 L 153.6,293.54 L 153.6,292.74 L 152.8,292.74 L 152,291.94 L 152,291.14" fill="none" stroke="#f14c4c" stroke-width="2"></path><path d="M 81.2,237.94 L 81.6,242.34 L 82.4,247.14 L 82.4,249.54 L 82.4,252.74 L 82.4,255.14 L 82.4,255.94 L 82.4,256.74 L 82.4,257.54 L 82.4,258.34 L 82.4,257.54 L 82.4,255.94 L 84,252.74 L 85.6,250.34 L 87.2,246.34 L 88,244.74 L 88.8,243.94 L 91.2,242.34 L 92,241.54 L 93.6,241.54 L 95.2,241.54 L 96.8,243.14 L 97.6,244.74 L 97.6,247.14 L 97.6,248.74 L 97.6,251.14 L 97.6,251.94 L 96.8,253.54 L 96.8,254.34 L 96,255.14 L 95.2,255.94 L 94.4,256.74 L 93.6,257.54 L 92.8,257.54 L 92.8,258.34 L 92,258.34 L 91.2,258.34 L 90.4,258.34 L 89.6,258.34" fill="none" stroke="#f14c4c" stroke-width="2"></path><path d="M 90,258.74" fill="none" stroke="#f14c4c" stroke-width="2"></path><path d="M 114,241.14" fill="none" stroke="#f14c4c" stroke-width="2"></path><path d="M 114,241.14 L 116,240.74 L 122.4,240.74 L 126.4,240.74 L 127.2,240.74 L 128.8,240.74 L 129.6,240.74 L 130.4,240.74 L 131.2,240.74 L 132,240.74 L 132.8,240.74" fill="none" stroke="#f14c4c" stroke-width="2"></path><path d="M 126.8,249.94" fill="none" stroke="#f14c4c" stroke-width="2"></path><path d="M 126.8,249.94 L 128,249.54 L 129.6,249.54 L 134.4,249.54 L 135.2,249.54 L 137.6,249.54 L 139.2,249.54 L 140,249.54 L 141.6,249.54 L 142.4,249.54 L 143.2,249.54 L 144,249.54 L 144.8,249.54" fill="none" stroke="#f14c4c" stroke-width="2"></path><path d="M 161.2,240.34" fill="none" stroke="#f14c4c" stroke-width="2"></path><path d="M 161.2,240.34 L 161.6,242.34 L 162.4,247.94 L 164,253.54 L 165.6,258.34 L 165.6,261.54 L 165.6,263.14 L 165.6,263.94 L 165.6,264.74 L 165.6,265.54 L 165.6,267.14 L 165.6,267.94" fill="none" stroke="#f14c4c" stroke-width="2"></path><path d="M 177.2,249.14 L 176.8,249.54 L 176.8,250.34 L 177.6,251.14 L 177.6,251.94 L 178.4,252.74 L 179.2,253.54 L 179.2,254.34 L 180,255.14 L 182.4,255.94 L 184,255.94 L 184.8,256.74 L 185.6,257.54 L 186.4,257.54 L 187.2,258.34 L 188,258.34 L 188.8,258.34 L 190.4,258.34 L 191.2,258.34 L 192,258.34 L 193.6,258.34 L 194.4,256.74 L 195.2,256.74 L 197.6,254.34 L 198.4,251.94 L 199.2,250.34 L 200,248.74 L 200,247.94 L 200.8,247.14 L 200.8,246.34 L 200.8,245.54 L 200.8,243.94 L 200,243.14 L 198.4,243.14 L 197.6,241.54 L 196.8,241.54 L 195.2,240.74 L 194.4,239.94 L 193.6,239.94 L 192.8,239.94 L 191.2,239.94 L 190.4,239.94 L 188.8,239.94 L 188.8,240.74 L 188,240.74 L 187.2,240.74 L 186.4,241.54 L 185.6,241.54 L 185.6,242.34 L 185.6,243.14 L 184.8,243.14 L 184,243.94 L 183.2,243.94 L 182.4,244.74 L 181.6,244.74 L 181.6,245.54 L 180.8,245.54 L 180.8,246.34 L 180,246.34 L 179.2,246.34 L 179.2,247.14" fill="none" stroke="#f14c4c" stroke-width="2"></path><path d="M 92.4,190.74 L 92,191.94 L 92,194.34 L 92,199.94 L 91.2,204.74 L 91.2,209.54 L 91.2,211.14 L 91.2,211.94 L 91.2,212.74 L 91.2,213.54 L 91.2,214.34 L 91.2,215.14 L 91.2,214.34 L 92,212.74 L 93.6,209.54 L 95.2,207.14 L 96,205.54 L 97.6,204.74 L 99.2,203.14 L 100,203.14 L 101.6,202.34 L 104,202.34 L 108,203.14 L 112,206.34 L 113.6,208.74 L 114.4,210.34 L 115.2,211.94 L 115.2,212.74 L 115.2,215.94 L 112.8,219.14 L 109.6,221.54 L 107.2,222.34 L 104,223.94 L 102.4,224.74 L 101.6,224.74 L 100,224.74 L 99.2,224.74 L 98.4,224.74 L 97.6,224.74 L 96.8,224.74 L 96.8,223.94 L 96.8,223.14 L 96.8,222.34 L 96.8,221.54" fill="none" stroke="#f14c4c" stroke-width="2"></path><path d="M 127.6,195.54 L 128.8,195.14 L 130.4,195.14 L 132,195.14 L 133.6,195.14 L 134.4,195.14 L 136,195.14 L 136.8,195.14 L 137.6,195.14 L 138.4,195.14 L 139.2,195.14 L 140,195.14 L 142.4,195.14 L 144,195.14 L 144.8,195.14 L 145.6,195.14 L 147.2,195.14 L 148,195.14 L 148.8,195.14" fill="none" stroke="#f14c4c" stroke-width="2"></path><path d="M 137.2,200.34" fill="none" stroke="#f14c4c" stroke-width="2"></path><path d="M 137.2,200.34 L 138.4,199.94 L 139.2,199.94 L 140,199.94 L 140.8,199.94 L 142.4,199.94 L 144,199.94 L 144.8,199.94 L 146.4,199.94 L 147.2,199.94 L 148,199.94 L 148.8,199.94 L 149.6,199.94 L 149.6,200.74" fill="none" stroke="#f14c4c" stroke-width="2"></path><path d="M 166,189.94 L 165.6,191.14 L 165.6,195.94 L 166.4,210.34 L 166.4,212.74 L 166.4,213.54 L 166.4,214.34 L 166.4,215.14 L 167.2,215.14 L 168,215.14 L 168.8,213.54 L 169.6,212.74 L 172,209.54 L 172.8,208.74 L 174.4,207.94 L 175.2,207.14 L 176.8,206.34 L 180,206.34 L 184,207.94 L 186.4,208.74 L 188,211.14 L 188,211.94 L 188.8,214.34 L 188.8,217.54 L 188.8,219.14 L 188.8,220.74 L 188,221.54 L 187.2,222.34 L 185.6,223.14 L 184,223.94 L 183.2,223.94 L 181.6,223.94 L 180.8,223.94 L 180,223.94 L 178.4,223.94 L 177.6,223.94 L 176,223.94" fill="none" stroke="#f14c4c" stroke-width="2"></path><path d="M 172.4,197.14 L 172.8,196.74 L 173.6,196.74 L 174.4,196.74 L 177.6,196.74 L 179.2,196.74 L 180,196.74 L 181.6,196.74 L 182.4,196.74 L 183.2,196.74 L 184,196.74 L 184.8,196.74 L 185.6,196.74 L 186.4,196.74 L 188,196.74 L 188.8,196.74 L 189.6,197.54 L 190.4,197.54 L 191.2,197.54 L 191.2,198.34" fill="none" stroke="#f14c4c" stroke-width="2"></path><path d="M 401,155.54" fill="none" stroke="#f14c4c" stroke-width="2"></path><text font-family="inherit" font-size="18" fill="#f14c4c" x="315.4" y="164.34"> {     {name: "ginni",     age: 22 }</text><text font-family="inherit" font-size="18" fill="#f14c4c" x="68.2" y="154.74">user1</text><text font-family="inherit" font-size="18" fill="#f14c4c" x="115.4" y="125.94">user2</text><path d="M 127.4,148.34 L 132,147.94 L 141.6,147.94 L 164.8,148.74 L 179.2,149.54 L 201.6,152.74 L 210.4,152.74 L 224,154.34 L 231.2,155.14 L 237.6,156.74 L 248.8,159.14 L 264,163.14 L 280.8,166.34 L 285.6,167.14 L 288,167.94 L 292.8,169.54 L 296,170.34 L 300.8,172.74 L 302.4,173.54 L 304,174.34 L 304.8,174.34 L 305.6,175.14 L 306.4,175.94 L 307.2,175.94" fill="none" stroke="#f14c4c" stroke-width="2"></path><path d="M 308.2,183.54 L 308.8,183.14 L 312.8,183.14 L 317.6,183.14 L 320,183.94 L 320.8,183.94 L 323.2,183.94 L 324,183.94 L 324.8,183.94 L 325.6,183.94 L 326.4,183.94 L 325.6,183.94 L 324.8,183.94 L 324,183.14 L 321.6,181.54 L 319.2,179.14 L 316.8,177.54 L 316,176.74 L 315.2,174.34 L 314.4,174.34 L 313.6,172.74 L 312,171.94" fill="none" stroke="#f14c4c" stroke-width="2"></path><path d="M 173.8,113.14 L 174.4,112.74 L 178.4,112.74 L 229.8,120.34 L 225,120.34 L 223.4,120.34 L 221.8,120.34 L 220.2,120.34 L 219.4,120.34 L 218.6,120.34 L 217.8,120.34 L 219.4,119.54 L 225,119.54 L 233,118.74 L 237,118.74 L 239.4,118.74 L 241,118.74 L 242.6,118.74 L 243.4,118.74 L 242.6,118.74 L 241.8,118.74 L 239.4,118.74 L 236.2,118.74 L 233.8,118.74 L 231.4,118.74 L 230.6,118.74 L 229.8,118.74 L 228.2,118.74 L 227.4,118.74 L 226.6,118.74 L 225.8,118.74 L 224.2,118.74" fill="none" stroke="#f14c4c" stroke-width="2"></path><path d="M 224.2,118.74 L 226.4,119.14 L 246.4,124.74 L 265.8,132.34 L 264.2,132.34 L 263.4,132.34 L 262.6,131.54 L 261.8,131.54 L 262.6,131.54 L 264.2,132.34 L 265.8,133.94 L 268.2,135.54 L 269.8,136.34 L 271.4,137.94 L 273,138.74 L 273,139.54 L 273.8,140.34 L 274.6,140.34 L 274.6,141.14 L 273.8,141.14 L 272.2,141.14 L 272.2,140.34 L 271.4,140.34 L 269.8,139.54 L 269.8,138.74 L 268.2,137.94 L 268.2,137.14 L 267.4,137.14 L 266.6,136.34 L 266.6,135.54 L 266.6,134.74" fill="none" stroke="#f14c4c" stroke-width="2"></path><path d="M 266.6,134.74 L 268.8,135.14 L 270.4,135.94 L 295.4,145.14 L 295.4,145.94 L 295.4,147.54 L 295.4,148.34 L 295.4,149.14 L 295.4,149.94 L 294.6,150.74 L 293.8,150.74 L 290.6,150.74 L 288.2,150.74 L 286.6,149.94 L 285.8,149.94 L 284.2,149.14 L 283.4,148.34 L 282.6,148.34 L 281.8,148.34" fill="none" stroke="#f14c4c" stroke-width="2"></path><path d="M 281,148.34 L 283.2,147.94 L 285.6,147.94 L 288.2,119.54 L 289,119.54 L 289.8,122.74 L 293.8,130.74 L 301,145.14 L 304.2,152.34 L 305.8,155.54 L 305.8,156.34 L 305.8,157.14 L 305.8,157.94 L 305.8,159.54 L 310.6,171.54 L 331.4,214.74 L 337.8,224.34 L 353,245.94 L 362.6,261.94 L 376.2,276.34 L 393,286.74 L 397,289.94 L 398.6,291.54 L 400.2,292.34 L 400.2,293.14 L 401,293.14 L 397,291.54 L 392.2,286.74 L 386.6,279.54 L 379.4,270.74 L 349.8,245.94 L 330.6,226.74 L 325.8,221.14 L 325,220.34 L 324.2,220.34" fill="none" stroke="#f14c4c" stroke-width="2"></path><path d="M 324.2,220.34" fill="none" stroke="#f14c4c" stroke-width="2"></path></svg>